<?xml version="1.0" standalone="no"?>
<!DOCTYPE svg PUBLIC "-//W3C//DTD SVG 20010904//EN"
 "http://www.w3.org/TR/2001/REC-SVG-20010904/DTD/svg10.dtd">
<svg version="1.0" xmlns="http://www.w3.org/2000/svg"
 width="500.000000pt" height="500.000000pt" viewBox="0 0 500.000000 500.000000"
 preserveAspectRatio="xMidYMid meet">

<g transform="translate(0.000000,500.000000) scale(0.100000,-0.100000)"
fill="#FFC400" stroke="none">
<path d="M2252 4619 c-107 -14 -221 -37 -340 -70 l-114 -32 904 -906 c1004
-1005 946 -939 956 -1087 5 -77 -13 -153 -51 -209 -11 -16 -421 -432 -911
-923 -678 -679 -888 -895 -877 -901 21 -14 232 -68 336 -86 122 -22 442 -31
575 -16 158 18 290 47 444 98 778 257 1331 929 1442 1753 28 215 13 521 -36
738 -70 305 -231 634 -428 875 -347 423 -854 699 -1412 767 -98 12 -395 11
-488 -1z"/>
<path d="M1575 3476 c-23 -14 -51 -43 -65 -68 l-25 -43 0 -865 c0 -858 0 -865
21 -905 11 -22 40 -53 63 -70 35 -25 52 -30 101 -30 49 0 66 5 101 30 23 17
52 48 63 70 21 40 21 47 21 905 l0 865 -27 45 c-51 88 -166 118 -253 66z"/>
<path d="M955 3007 c-42 -19 -92 -79 -104 -124 -15 -53 -14 -715 0 -768 24
-87 88 -135 180 -135 67 0 126 33 157 88 22 39 22 44 22 433 0 442 2 426 -75
485 -44 33 -131 43 -180 21z"/>
<path d="M2235 3004 c-16 -8 -41 -25 -53 -37 -52 -48 -52 -48 -52 -468 0 -387
0 -392 22 -431 31 -55 90 -88 157 -88 92 0 156 48 180 135 14 53 15 715 0 768
-13 47 -63 106 -106 123 -43 19 -111 17 -148 -2z"/>
</g>
</svg>
